<mxfile host="Electron" modified="2024-04-02T04:25:40.631Z" agent="Mozilla/5.0 (Windows NT 10.0; Win64; x64) AppleWebKit/537.36 (KHTML, like Gecko) draw.io/23.1.5 Chrome/120.0.6099.109 Electron/28.1.0 Safari/537.36" etag="Vq4B7EMZ6Ud94wykUMKE" version="23.1.5" type="device">
  <diagram name="Page-1" id="wM9KH-3jav3cSTk0xj3Y">
    <mxGraphModel dx="1615" dy="955" grid="1" gridSize="10" guides="1" tooltips="1" connect="1" arrows="1" fold="1" page="1" pageScale="1" pageWidth="827" pageHeight="1169" math="0" shadow="0">
      <root>
        <mxCell id="0" />
        <mxCell id="1" parent="0" />
        <mxCell id="jQopiyZMTLAeh-w2dFK_-1" value="&lt;div style=&quot;font-size: 14px;&quot;&gt;Hệ thống quản lý nguyên liệu WebeRaw&lt;/div&gt;" style="swimlane;startSize=20;whiteSpace=wrap;html=1;fontSize=14;" parent="1" vertex="1">
          <mxGeometry x="470" y="50" width="520" height="1120" as="geometry" />
        </mxCell>
        <mxCell id="CwpPlgjm44ggRxBaJvgp-8" value="Chuyển sang màn hình đăng nhập" style="rounded=1;whiteSpace=wrap;html=1;dashed=0;strokeColor=default;align=center;verticalAlign=top;arcSize=10;fontFamily=Helvetica;fontSize=14;fontColor=default;fillColor=default;" vertex="1" parent="jQopiyZMTLAeh-w2dFK_-1">
          <mxGeometry x="120" y="110" width="110" height="60" as="geometry" />
        </mxCell>
        <mxCell id="CwpPlgjm44ggRxBaJvgp-22" style="edgeStyle=orthogonalEdgeStyle;rounded=0;orthogonalLoop=1;jettySize=auto;html=1;fontFamily=Helvetica;fontSize=14;fontColor=default;" edge="1" parent="jQopiyZMTLAeh-w2dFK_-1" source="CwpPlgjm44ggRxBaJvgp-19" target="CwpPlgjm44ggRxBaJvgp-21">
          <mxGeometry relative="1" as="geometry" />
        </mxCell>
        <mxCell id="CwpPlgjm44ggRxBaJvgp-19" value="Xác thực thông tin" style="rounded=1;whiteSpace=wrap;html=1;dashed=0;strokeColor=default;align=center;verticalAlign=top;arcSize=10;fontFamily=Helvetica;fontSize=14;fontColor=default;fillColor=default;" vertex="1" parent="jQopiyZMTLAeh-w2dFK_-1">
          <mxGeometry x="120" y="335" width="110" height="60" as="geometry" />
        </mxCell>
        <mxCell id="CwpPlgjm44ggRxBaJvgp-37" style="edgeStyle=orthogonalEdgeStyle;rounded=0;orthogonalLoop=1;jettySize=auto;html=1;fontFamily=Helvetica;fontSize=14;fontColor=default;" edge="1" parent="jQopiyZMTLAeh-w2dFK_-1" source="CwpPlgjm44ggRxBaJvgp-21" target="CwpPlgjm44ggRxBaJvgp-29">
          <mxGeometry relative="1" as="geometry" />
        </mxCell>
        <mxCell id="CwpPlgjm44ggRxBaJvgp-38" value="Không thành &lt;br&gt;công" style="edgeLabel;html=1;align=center;verticalAlign=middle;resizable=0;points=[];rounded=1;dashed=0;strokeColor=default;arcSize=10;fontFamily=Helvetica;fontSize=14;fontColor=default;fillColor=default;" vertex="1" connectable="0" parent="CwpPlgjm44ggRxBaJvgp-37">
          <mxGeometry x="-0.3535" y="-3" relative="1" as="geometry">
            <mxPoint as="offset" />
          </mxGeometry>
        </mxCell>
        <mxCell id="CwpPlgjm44ggRxBaJvgp-40" style="edgeStyle=orthogonalEdgeStyle;rounded=0;orthogonalLoop=1;jettySize=auto;html=1;entryX=0.5;entryY=0;entryDx=0;entryDy=0;fontFamily=Helvetica;fontSize=14;fontColor=default;" edge="1" parent="jQopiyZMTLAeh-w2dFK_-1" source="CwpPlgjm44ggRxBaJvgp-21" target="CwpPlgjm44ggRxBaJvgp-23">
          <mxGeometry relative="1" as="geometry" />
        </mxCell>
        <mxCell id="CwpPlgjm44ggRxBaJvgp-41" value="Thành công" style="edgeLabel;html=1;align=center;verticalAlign=middle;resizable=0;points=[];rounded=1;dashed=0;strokeColor=default;arcSize=10;fontFamily=Helvetica;fontSize=14;fontColor=default;fillColor=default;" vertex="1" connectable="0" parent="CwpPlgjm44ggRxBaJvgp-40">
          <mxGeometry x="0.4553" y="-1" relative="1" as="geometry">
            <mxPoint as="offset" />
          </mxGeometry>
        </mxCell>
        <mxCell id="CwpPlgjm44ggRxBaJvgp-21" value="" style="rhombus;whiteSpace=wrap;html=1;rounded=1;dashed=0;strokeColor=default;align=center;verticalAlign=top;arcSize=10;fontFamily=Helvetica;fontSize=14;fontColor=default;fillColor=default;" vertex="1" parent="jQopiyZMTLAeh-w2dFK_-1">
          <mxGeometry x="150" y="435" width="50" height="50" as="geometry" />
        </mxCell>
        <mxCell id="CwpPlgjm44ggRxBaJvgp-2" value="Người dùng truy cập vào hệ thống" style="rounded=1;whiteSpace=wrap;html=1;dashed=0;strokeColor=default;align=center;verticalAlign=top;arcSize=10;fontFamily=Helvetica;fontSize=14;fontColor=default;fillColor=default;" vertex="1" parent="jQopiyZMTLAeh-w2dFK_-1">
          <mxGeometry x="-380" y="110" width="90" height="60" as="geometry" />
        </mxCell>
        <mxCell id="CwpPlgjm44ggRxBaJvgp-4" value="&amp;nbsp;Chọn phương thức đăng nhập" style="rounded=1;whiteSpace=wrap;html=1;dashed=0;strokeColor=default;align=center;verticalAlign=top;arcSize=10;fontFamily=Helvetica;fontSize=14;fontColor=default;fillColor=default;" vertex="1" parent="jQopiyZMTLAeh-w2dFK_-1">
          <mxGeometry x="-270" y="110" width="110" height="60" as="geometry" />
        </mxCell>
        <mxCell id="CwpPlgjm44ggRxBaJvgp-5" style="edgeStyle=orthogonalEdgeStyle;rounded=0;orthogonalLoop=1;jettySize=auto;html=1;fontFamily=Helvetica;fontSize=14;fontColor=default;" edge="1" parent="jQopiyZMTLAeh-w2dFK_-1" source="CwpPlgjm44ggRxBaJvgp-2" target="CwpPlgjm44ggRxBaJvgp-4">
          <mxGeometry relative="1" as="geometry" />
        </mxCell>
        <mxCell id="CwpPlgjm44ggRxBaJvgp-6" value="" style="rhombus;whiteSpace=wrap;html=1;rounded=1;dashed=0;strokeColor=default;align=center;verticalAlign=top;arcSize=10;fontFamily=Helvetica;fontSize=14;fontColor=default;fillColor=default;" vertex="1" parent="jQopiyZMTLAeh-w2dFK_-1">
          <mxGeometry x="-120" y="115" width="50" height="50" as="geometry" />
        </mxCell>
        <mxCell id="CwpPlgjm44ggRxBaJvgp-94" style="edgeStyle=orthogonalEdgeStyle;rounded=0;orthogonalLoop=1;jettySize=auto;html=1;entryX=0;entryY=0.5;entryDx=0;entryDy=0;fontFamily=Helvetica;fontSize=14;fontColor=default;" edge="1" parent="jQopiyZMTLAeh-w2dFK_-1" source="CwpPlgjm44ggRxBaJvgp-17" target="CwpPlgjm44ggRxBaJvgp-19">
          <mxGeometry relative="1" as="geometry">
            <Array as="points">
              <mxPoint x="-215" y="365" />
            </Array>
          </mxGeometry>
        </mxCell>
        <mxCell id="CwpPlgjm44ggRxBaJvgp-17" value="&amp;nbsp;Nhập tài khoản &amp;amp; mật khẩu" style="rounded=1;whiteSpace=wrap;html=1;dashed=0;strokeColor=default;align=center;verticalAlign=top;arcSize=10;fontFamily=Helvetica;fontSize=14;fontColor=default;fillColor=default;" vertex="1" parent="jQopiyZMTLAeh-w2dFK_-1">
          <mxGeometry x="-270" y="250" width="110" height="60" as="geometry" />
        </mxCell>
        <mxCell id="CwpPlgjm44ggRxBaJvgp-7" style="edgeStyle=orthogonalEdgeStyle;rounded=0;orthogonalLoop=1;jettySize=auto;html=1;fontFamily=Helvetica;fontSize=14;fontColor=default;" edge="1" parent="jQopiyZMTLAeh-w2dFK_-1" source="CwpPlgjm44ggRxBaJvgp-4" target="CwpPlgjm44ggRxBaJvgp-6">
          <mxGeometry relative="1" as="geometry" />
        </mxCell>
        <mxCell id="CwpPlgjm44ggRxBaJvgp-9" style="edgeStyle=orthogonalEdgeStyle;rounded=0;orthogonalLoop=1;jettySize=auto;html=1;entryX=0.5;entryY=1;entryDx=0;entryDy=0;fontFamily=Helvetica;fontSize=14;fontColor=default;" edge="1" parent="jQopiyZMTLAeh-w2dFK_-1" source="CwpPlgjm44ggRxBaJvgp-6" target="CwpPlgjm44ggRxBaJvgp-8">
          <mxGeometry relative="1" as="geometry">
            <Array as="points">
              <mxPoint x="-95" y="185" />
              <mxPoint x="175" y="185" />
            </Array>
          </mxGeometry>
        </mxCell>
        <mxCell id="CwpPlgjm44ggRxBaJvgp-16" value="Nhân viên" style="edgeLabel;html=1;align=center;verticalAlign=middle;resizable=0;points=[];rounded=1;dashed=0;strokeColor=default;arcSize=10;fontFamily=Helvetica;fontSize=14;fontColor=default;fillColor=default;" vertex="1" connectable="0" parent="CwpPlgjm44ggRxBaJvgp-9">
          <mxGeometry x="-0.474" relative="1" as="geometry">
            <mxPoint as="offset" />
          </mxGeometry>
        </mxCell>
        <mxCell id="CwpPlgjm44ggRxBaJvgp-10" style="edgeStyle=orthogonalEdgeStyle;rounded=0;orthogonalLoop=1;jettySize=auto;html=1;entryX=0.5;entryY=0;entryDx=0;entryDy=0;fontFamily=Helvetica;fontSize=14;fontColor=default;" edge="1" parent="jQopiyZMTLAeh-w2dFK_-1" source="CwpPlgjm44ggRxBaJvgp-6" target="CwpPlgjm44ggRxBaJvgp-8">
          <mxGeometry relative="1" as="geometry">
            <Array as="points">
              <mxPoint x="-95" y="90" />
              <mxPoint x="175" y="90" />
            </Array>
          </mxGeometry>
        </mxCell>
        <mxCell id="CwpPlgjm44ggRxBaJvgp-14" value="Quản lý" style="edgeLabel;html=1;align=center;verticalAlign=middle;resizable=0;points=[];rounded=1;dashed=0;strokeColor=default;arcSize=10;fontFamily=Helvetica;fontSize=14;fontColor=default;fillColor=default;" vertex="1" connectable="0" parent="CwpPlgjm44ggRxBaJvgp-10">
          <mxGeometry x="-0.4049" relative="1" as="geometry">
            <mxPoint as="offset" />
          </mxGeometry>
        </mxCell>
        <mxCell id="CwpPlgjm44ggRxBaJvgp-18" style="edgeStyle=orthogonalEdgeStyle;rounded=0;orthogonalLoop=1;jettySize=auto;html=1;entryX=1;entryY=0.5;entryDx=0;entryDy=0;fontFamily=Helvetica;fontSize=14;fontColor=default;" edge="1" parent="jQopiyZMTLAeh-w2dFK_-1" source="CwpPlgjm44ggRxBaJvgp-8" target="CwpPlgjm44ggRxBaJvgp-17">
          <mxGeometry relative="1" as="geometry">
            <Array as="points">
              <mxPoint x="250" y="140" />
              <mxPoint x="250" y="280" />
            </Array>
          </mxGeometry>
        </mxCell>
        <mxCell id="CwpPlgjm44ggRxBaJvgp-29" value="Hiển thị thông báo lỗi &quot;Đăng nhập không thành công&quot;" style="rounded=1;whiteSpace=wrap;html=1;dashed=0;strokeColor=default;align=center;verticalAlign=top;arcSize=10;fontFamily=Helvetica;fontSize=14;fontColor=default;fillColor=default;" vertex="1" parent="jQopiyZMTLAeh-w2dFK_-1">
          <mxGeometry x="120" y="565" width="110" height="80" as="geometry" />
        </mxCell>
        <mxCell id="CwpPlgjm44ggRxBaJvgp-93" style="edgeStyle=orthogonalEdgeStyle;rounded=0;orthogonalLoop=1;jettySize=auto;html=1;entryX=0;entryY=0.5;entryDx=0;entryDy=0;fontFamily=Helvetica;fontSize=14;fontColor=default;" edge="1" parent="jQopiyZMTLAeh-w2dFK_-1" source="CwpPlgjm44ggRxBaJvgp-23" target="CwpPlgjm44ggRxBaJvgp-92">
          <mxGeometry relative="1" as="geometry" />
        </mxCell>
        <mxCell id="CwpPlgjm44ggRxBaJvgp-23" value="Mở giao diện trang chủ" style="rounded=1;whiteSpace=wrap;html=1;dashed=0;strokeColor=default;align=center;verticalAlign=top;arcSize=10;fontFamily=Helvetica;fontSize=14;fontColor=default;fillColor=default;" vertex="1" parent="jQopiyZMTLAeh-w2dFK_-1">
          <mxGeometry x="280" y="565" width="110" height="60" as="geometry" />
        </mxCell>
        <mxCell id="CwpPlgjm44ggRxBaJvgp-44" style="edgeStyle=orthogonalEdgeStyle;rounded=0;orthogonalLoop=1;jettySize=auto;html=1;fontFamily=Helvetica;fontSize=14;fontColor=default;entryX=0.5;entryY=0;entryDx=0;entryDy=0;" edge="1" parent="jQopiyZMTLAeh-w2dFK_-1" source="CwpPlgjm44ggRxBaJvgp-42" target="CwpPlgjm44ggRxBaJvgp-88">
          <mxGeometry relative="1" as="geometry">
            <mxPoint x="279.45" y="815" as="targetPoint" />
            <Array as="points">
              <mxPoint x="360" y="720" />
            </Array>
          </mxGeometry>
        </mxCell>
        <mxCell id="CwpPlgjm44ggRxBaJvgp-45" value="Không nhập&lt;br&gt;lại" style="edgeLabel;html=1;align=center;verticalAlign=middle;resizable=0;points=[];rounded=1;dashed=0;strokeColor=default;arcSize=10;fontFamily=Helvetica;fontSize=14;fontColor=default;fillColor=default;" vertex="1" connectable="0" parent="CwpPlgjm44ggRxBaJvgp-44">
          <mxGeometry x="-0.0901" y="1" relative="1" as="geometry">
            <mxPoint x="6" y="61" as="offset" />
          </mxGeometry>
        </mxCell>
        <mxCell id="CwpPlgjm44ggRxBaJvgp-52" value="" style="edgeStyle=orthogonalEdgeStyle;rounded=0;orthogonalLoop=1;jettySize=auto;html=1;fontFamily=Helvetica;fontSize=14;fontColor=default;" edge="1" parent="jQopiyZMTLAeh-w2dFK_-1" source="CwpPlgjm44ggRxBaJvgp-42" target="CwpPlgjm44ggRxBaJvgp-51">
          <mxGeometry relative="1" as="geometry" />
        </mxCell>
        <mxCell id="CwpPlgjm44ggRxBaJvgp-53" value="Nhập lại" style="edgeLabel;html=1;align=center;verticalAlign=middle;resizable=0;points=[];rounded=1;dashed=0;strokeColor=default;arcSize=10;fontFamily=Helvetica;fontSize=14;fontColor=default;fillColor=default;" vertex="1" connectable="0" parent="CwpPlgjm44ggRxBaJvgp-52">
          <mxGeometry x="-0.4206" y="1" relative="1" as="geometry">
            <mxPoint x="-6" y="-1" as="offset" />
          </mxGeometry>
        </mxCell>
        <mxCell id="CwpPlgjm44ggRxBaJvgp-42" value="" style="rhombus;whiteSpace=wrap;html=1;rounded=1;dashed=0;strokeColor=default;align=center;verticalAlign=top;arcSize=10;fontFamily=Helvetica;fontSize=14;fontColor=default;fillColor=default;" vertex="1" parent="jQopiyZMTLAeh-w2dFK_-1">
          <mxGeometry x="199.45" y="695" width="50" height="50" as="geometry" />
        </mxCell>
        <mxCell id="CwpPlgjm44ggRxBaJvgp-56" style="edgeStyle=orthogonalEdgeStyle;rounded=0;orthogonalLoop=1;jettySize=auto;html=1;entryX=0.5;entryY=1;entryDx=0;entryDy=0;fontFamily=Helvetica;fontSize=14;fontColor=default;exitX=0.495;exitY=0.072;exitDx=0;exitDy=0;exitPerimeter=0;" edge="1" parent="jQopiyZMTLAeh-w2dFK_-1" source="CwpPlgjm44ggRxBaJvgp-51" target="CwpPlgjm44ggRxBaJvgp-4">
          <mxGeometry relative="1" as="geometry">
            <Array as="points">
              <mxPoint x="125" y="745" />
              <mxPoint x="-290" y="745" />
              <mxPoint x="-290" y="200" />
              <mxPoint x="-215" y="200" />
            </Array>
          </mxGeometry>
        </mxCell>
        <mxCell id="CwpPlgjm44ggRxBaJvgp-57" value="Đăng nhập lại" style="edgeLabel;html=1;align=center;verticalAlign=middle;resizable=0;points=[];rounded=1;dashed=0;strokeColor=default;arcSize=10;fontFamily=Helvetica;fontSize=14;fontColor=default;fillColor=default;" vertex="1" connectable="0" parent="CwpPlgjm44ggRxBaJvgp-56">
          <mxGeometry x="-0.7417" y="-1" relative="1" as="geometry">
            <mxPoint as="offset" />
          </mxGeometry>
        </mxCell>
        <mxCell id="CwpPlgjm44ggRxBaJvgp-58" style="edgeStyle=orthogonalEdgeStyle;rounded=0;orthogonalLoop=1;jettySize=auto;html=1;fontFamily=Helvetica;fontSize=14;fontColor=default;exitX=0;exitY=0.5;exitDx=0;exitDy=0;" edge="1" parent="jQopiyZMTLAeh-w2dFK_-1" source="CwpPlgjm44ggRxBaJvgp-51" target="CwpPlgjm44ggRxBaJvgp-55">
          <mxGeometry relative="1" as="geometry" />
        </mxCell>
        <mxCell id="CwpPlgjm44ggRxBaJvgp-59" value="Lấy lại &lt;br&gt;tài khoản" style="edgeLabel;html=1;align=center;verticalAlign=middle;resizable=0;points=[];rounded=1;dashed=0;strokeColor=default;arcSize=10;fontFamily=Helvetica;fontSize=14;fontColor=default;fillColor=default;" vertex="1" connectable="0" parent="CwpPlgjm44ggRxBaJvgp-58">
          <mxGeometry x="-0.6525" y="2" relative="1" as="geometry">
            <mxPoint x="-8" y="23" as="offset" />
          </mxGeometry>
        </mxCell>
        <mxCell id="CwpPlgjm44ggRxBaJvgp-74" style="edgeStyle=orthogonalEdgeStyle;rounded=0;orthogonalLoop=1;jettySize=auto;html=1;entryX=0.5;entryY=0;entryDx=0;entryDy=0;fontFamily=Helvetica;fontSize=14;fontColor=default;" edge="1" parent="jQopiyZMTLAeh-w2dFK_-1" source="CwpPlgjm44ggRxBaJvgp-51" target="CwpPlgjm44ggRxBaJvgp-73">
          <mxGeometry relative="1" as="geometry">
            <Array as="points">
              <mxPoint x="125" y="800" />
              <mxPoint x="210" y="800" />
            </Array>
          </mxGeometry>
        </mxCell>
        <mxCell id="CwpPlgjm44ggRxBaJvgp-75" value="Đăng nhập&lt;br&gt;sai 6 lần" style="edgeLabel;html=1;align=center;verticalAlign=middle;resizable=0;points=[];rounded=1;dashed=0;strokeColor=default;arcSize=10;fontFamily=Helvetica;fontSize=14;fontColor=default;fillColor=default;" vertex="1" connectable="0" parent="CwpPlgjm44ggRxBaJvgp-74">
          <mxGeometry x="-0.3727" relative="1" as="geometry">
            <mxPoint x="9" as="offset" />
          </mxGeometry>
        </mxCell>
        <mxCell id="CwpPlgjm44ggRxBaJvgp-51" value="" style="rhombus;whiteSpace=wrap;html=1;rounded=1;dashed=0;strokeColor=default;align=center;verticalAlign=top;arcSize=10;fontFamily=Helvetica;fontSize=14;fontColor=default;fillColor=default;" vertex="1" parent="jQopiyZMTLAeh-w2dFK_-1">
          <mxGeometry x="100" y="745" width="50" height="50" as="geometry" />
        </mxCell>
        <mxCell id="CwpPlgjm44ggRxBaJvgp-55" value="Mở trang cập nhật lại tài khoản" style="rounded=1;whiteSpace=wrap;html=1;dashed=0;strokeColor=default;align=center;verticalAlign=top;arcSize=10;fontFamily=Helvetica;fontSize=14;fontColor=default;fillColor=default;" vertex="1" parent="jQopiyZMTLAeh-w2dFK_-1">
          <mxGeometry x="20" y="840" width="110" height="60" as="geometry" />
        </mxCell>
        <mxCell id="CwpPlgjm44ggRxBaJvgp-65" value="Cấp lại tài khoản" style="rounded=1;whiteSpace=wrap;html=1;dashed=0;strokeColor=default;align=center;verticalAlign=top;arcSize=10;fontFamily=Helvetica;fontSize=14;fontColor=default;fillColor=default;" vertex="1" parent="jQopiyZMTLAeh-w2dFK_-1">
          <mxGeometry x="20" y="950" width="120" height="60" as="geometry" />
        </mxCell>
        <mxCell id="CwpPlgjm44ggRxBaJvgp-67" value="Thông báo lỗi sai thông tin" style="rounded=1;whiteSpace=wrap;html=1;dashed=0;strokeColor=default;align=center;verticalAlign=top;arcSize=10;fontFamily=Helvetica;fontSize=14;fontColor=default;fillColor=default;" vertex="1" parent="jQopiyZMTLAeh-w2dFK_-1">
          <mxGeometry x="20" y="1030" width="120" height="60" as="geometry" />
        </mxCell>
        <mxCell id="CwpPlgjm44ggRxBaJvgp-90" style="edgeStyle=orthogonalEdgeStyle;rounded=0;orthogonalLoop=1;jettySize=auto;html=1;entryX=0;entryY=0.5;entryDx=0;entryDy=0;fontFamily=Helvetica;fontSize=14;fontColor=default;" edge="1" parent="jQopiyZMTLAeh-w2dFK_-1" source="CwpPlgjm44ggRxBaJvgp-73" target="CwpPlgjm44ggRxBaJvgp-89">
          <mxGeometry relative="1" as="geometry">
            <Array as="points">
              <mxPoint x="210" y="965" />
            </Array>
          </mxGeometry>
        </mxCell>
        <mxCell id="CwpPlgjm44ggRxBaJvgp-73" value="Khóa tài khoản&amp;nbsp;" style="rounded=1;whiteSpace=wrap;html=1;dashed=0;strokeColor=default;align=center;verticalAlign=top;arcSize=10;fontFamily=Helvetica;fontSize=14;fontColor=default;fillColor=default;" vertex="1" parent="jQopiyZMTLAeh-w2dFK_-1">
          <mxGeometry x="160" y="840" width="100" height="60" as="geometry" />
        </mxCell>
        <mxCell id="CwpPlgjm44ggRxBaJvgp-77" value="" style="shape=line;html=1;strokeWidth=6;strokeColor=#ff0000;rounded=1;dashed=0;align=center;verticalAlign=top;arcSize=10;fontFamily=Helvetica;fontSize=14;fontColor=default;fillColor=default;" vertex="1" parent="jQopiyZMTLAeh-w2dFK_-1">
          <mxGeometry x="190" y="660" width="70" height="10" as="geometry" />
        </mxCell>
        <mxCell id="CwpPlgjm44ggRxBaJvgp-80" value="" style="edgeStyle=orthogonalEdgeStyle;html=1;verticalAlign=bottom;endArrow=open;endSize=8;strokeColor=#ff0000;rounded=0;fontFamily=Helvetica;fontSize=14;fontColor=default;entryX=0.506;entryY=0.061;entryDx=0;entryDy=0;entryPerimeter=0;" edge="1" source="CwpPlgjm44ggRxBaJvgp-77" parent="jQopiyZMTLAeh-w2dFK_-1" target="CwpPlgjm44ggRxBaJvgp-42">
          <mxGeometry relative="1" as="geometry">
            <mxPoint x="224.32" y="695" as="targetPoint" />
            <mxPoint x="224.32" y="660" as="sourcePoint" />
          </mxGeometry>
        </mxCell>
        <mxCell id="CwpPlgjm44ggRxBaJvgp-83" style="edgeStyle=orthogonalEdgeStyle;rounded=0;orthogonalLoop=1;jettySize=auto;html=1;entryX=0.281;entryY=0.666;entryDx=0;entryDy=0;entryPerimeter=0;fontFamily=Helvetica;fontSize=14;fontColor=default;" edge="1" parent="jQopiyZMTLAeh-w2dFK_-1" source="CwpPlgjm44ggRxBaJvgp-29" target="CwpPlgjm44ggRxBaJvgp-77">
          <mxGeometry relative="1" as="geometry">
            <Array as="points">
              <mxPoint x="210" y="660" />
              <mxPoint x="210" y="660" />
            </Array>
          </mxGeometry>
        </mxCell>
        <mxCell id="CwpPlgjm44ggRxBaJvgp-84" value="" style="shape=line;html=1;strokeWidth=6;strokeColor=#ff0000;rounded=1;dashed=0;align=center;verticalAlign=top;arcSize=10;fontFamily=Helvetica;fontSize=14;fontColor=default;fillColor=default;rotation=-90;" vertex="1" parent="jQopiyZMTLAeh-w2dFK_-1">
          <mxGeometry x="121.25" y="1021.25" width="137.5" height="10" as="geometry" />
        </mxCell>
        <mxCell id="CwpPlgjm44ggRxBaJvgp-86" style="edgeStyle=orthogonalEdgeStyle;rounded=0;orthogonalLoop=1;jettySize=auto;html=1;entryX=0.25;entryY=0.5;entryDx=0;entryDy=0;entryPerimeter=0;fontFamily=Helvetica;fontSize=14;fontColor=default;" edge="1" parent="jQopiyZMTLAeh-w2dFK_-1" source="CwpPlgjm44ggRxBaJvgp-67" target="CwpPlgjm44ggRxBaJvgp-84">
          <mxGeometry relative="1" as="geometry" />
        </mxCell>
        <mxCell id="CwpPlgjm44ggRxBaJvgp-87" style="edgeStyle=orthogonalEdgeStyle;rounded=0;orthogonalLoop=1;jettySize=auto;html=1;fontFamily=Helvetica;fontSize=14;fontColor=default;" edge="1" parent="jQopiyZMTLAeh-w2dFK_-1" source="CwpPlgjm44ggRxBaJvgp-65">
          <mxGeometry relative="1" as="geometry">
            <mxPoint x="190" y="979" as="targetPoint" />
          </mxGeometry>
        </mxCell>
        <mxCell id="CwpPlgjm44ggRxBaJvgp-85" value="" style="edgeStyle=orthogonalEdgeStyle;html=1;verticalAlign=bottom;endArrow=open;endSize=8;strokeColor=#ff0000;rounded=0;fontFamily=Helvetica;fontSize=14;fontColor=default;entryX=0.75;entryY=0.5;entryDx=0;entryDy=0;entryPerimeter=0;" edge="1" source="CwpPlgjm44ggRxBaJvgp-84" parent="jQopiyZMTLAeh-w2dFK_-1" target="CwpPlgjm44ggRxBaJvgp-77">
          <mxGeometry relative="1" as="geometry">
            <mxPoint x="840" y="360" as="targetPoint" />
            <Array as="points">
              <mxPoint x="440" y="1026" />
              <mxPoint x="440" y="640" />
              <mxPoint x="242" y="640" />
            </Array>
          </mxGeometry>
        </mxCell>
        <mxCell id="CwpPlgjm44ggRxBaJvgp-91" style="edgeStyle=orthogonalEdgeStyle;rounded=0;orthogonalLoop=1;jettySize=auto;html=1;entryX=1;entryY=0.5;entryDx=0;entryDy=0;fontFamily=Helvetica;fontSize=14;fontColor=default;" edge="1" parent="jQopiyZMTLAeh-w2dFK_-1" source="CwpPlgjm44ggRxBaJvgp-88" target="CwpPlgjm44ggRxBaJvgp-89">
          <mxGeometry relative="1" as="geometry" />
        </mxCell>
        <mxCell id="CwpPlgjm44ggRxBaJvgp-88" value="Tự động thoát hệ thống" style="rounded=1;whiteSpace=wrap;html=1;dashed=0;strokeColor=default;align=center;verticalAlign=top;arcSize=10;fontFamily=Helvetica;fontSize=14;fontColor=default;fillColor=default;" vertex="1" parent="jQopiyZMTLAeh-w2dFK_-1">
          <mxGeometry x="310" y="840" width="100" height="60" as="geometry" />
        </mxCell>
        <mxCell id="CwpPlgjm44ggRxBaJvgp-89" value="" style="ellipse;html=1;shape=endState;fillColor=#000000;strokeColor=#ff0000;rounded=1;dashed=0;align=center;verticalAlign=top;arcSize=10;fontFamily=Helvetica;fontSize=14;fontColor=default;" vertex="1" parent="jQopiyZMTLAeh-w2dFK_-1">
          <mxGeometry x="290" y="950" width="30" height="30" as="geometry" />
        </mxCell>
        <mxCell id="CwpPlgjm44ggRxBaJvgp-92" value="" style="ellipse;html=1;shape=endState;fillColor=strokeColor;rounded=1;dashed=0;strokeColor=default;align=center;verticalAlign=top;arcSize=10;fontFamily=Helvetica;fontSize=14;fontColor=default;" vertex="1" parent="jQopiyZMTLAeh-w2dFK_-1">
          <mxGeometry x="440" y="580" width="30" height="30" as="geometry" />
        </mxCell>
        <mxCell id="jQopiyZMTLAeh-w2dFK_-2" value="Người dùng" style="swimlane;startSize=20;whiteSpace=wrap;html=1;fontSize=14;" parent="1" vertex="1">
          <mxGeometry x="20" y="50" width="450" height="1120" as="geometry" />
        </mxCell>
        <mxCell id="CwpPlgjm44ggRxBaJvgp-63" value="" style="edgeStyle=orthogonalEdgeStyle;rounded=0;orthogonalLoop=1;jettySize=auto;html=1;fontFamily=Helvetica;fontSize=14;fontColor=default;" edge="1" parent="jQopiyZMTLAeh-w2dFK_-2" source="CwpPlgjm44ggRxBaJvgp-60" target="CwpPlgjm44ggRxBaJvgp-62">
          <mxGeometry relative="1" as="geometry" />
        </mxCell>
        <mxCell id="CwpPlgjm44ggRxBaJvgp-60" value="Nhập thông tin ban đầu khi tạo tài khoản" style="rounded=1;whiteSpace=wrap;html=1;dashed=0;strokeColor=default;align=center;verticalAlign=top;arcSize=10;fontFamily=Helvetica;fontSize=14;fontColor=default;fillColor=default;" vertex="1" parent="jQopiyZMTLAeh-w2dFK_-2">
          <mxGeometry x="240" y="840" width="120" height="60" as="geometry" />
        </mxCell>
        <mxCell id="CwpPlgjm44ggRxBaJvgp-64" style="edgeStyle=orthogonalEdgeStyle;rounded=0;orthogonalLoop=1;jettySize=auto;html=1;fontFamily=Helvetica;fontSize=14;fontColor=default;" edge="1" parent="jQopiyZMTLAeh-w2dFK_-2" source="CwpPlgjm44ggRxBaJvgp-62">
          <mxGeometry relative="1" as="geometry">
            <mxPoint x="470" y="980" as="targetPoint" />
            <Array as="points">
              <mxPoint x="165" y="980" />
            </Array>
          </mxGeometry>
        </mxCell>
        <mxCell id="CwpPlgjm44ggRxBaJvgp-66" value="Đúng&amp;nbsp;&amp;nbsp;" style="edgeLabel;html=1;align=center;verticalAlign=middle;resizable=0;points=[];rounded=1;dashed=0;strokeColor=default;arcSize=10;fontFamily=Helvetica;fontSize=14;fontColor=default;fillColor=default;" vertex="1" connectable="0" parent="CwpPlgjm44ggRxBaJvgp-64">
          <mxGeometry x="-0.8319" y="4" relative="1" as="geometry">
            <mxPoint y="-1" as="offset" />
          </mxGeometry>
        </mxCell>
        <mxCell id="CwpPlgjm44ggRxBaJvgp-62" value="" style="rhombus;whiteSpace=wrap;html=1;fontSize=14;verticalAlign=top;rounded=1;dashed=0;arcSize=10;" vertex="1" parent="jQopiyZMTLAeh-w2dFK_-2">
          <mxGeometry x="140" y="845" width="50" height="50" as="geometry" />
        </mxCell>
        <mxCell id="CwpPlgjm44ggRxBaJvgp-1" value="" style="ellipse;fillColor=strokeColor;html=1;rounded=1;dashed=0;strokeColor=default;align=center;verticalAlign=top;arcSize=10;fontFamily=Helvetica;fontSize=14;fontColor=default;" vertex="1" parent="jQopiyZMTLAeh-w2dFK_-2">
          <mxGeometry x="10" y="120" width="40" height="40" as="geometry" />
        </mxCell>
        <mxCell id="CwpPlgjm44ggRxBaJvgp-61" style="edgeStyle=orthogonalEdgeStyle;rounded=0;orthogonalLoop=1;jettySize=auto;html=1;entryX=1;entryY=0.5;entryDx=0;entryDy=0;fontFamily=Helvetica;fontSize=14;fontColor=default;" edge="1" parent="1" source="CwpPlgjm44ggRxBaJvgp-55" target="CwpPlgjm44ggRxBaJvgp-60">
          <mxGeometry relative="1" as="geometry" />
        </mxCell>
        <mxCell id="CwpPlgjm44ggRxBaJvgp-68" style="edgeStyle=orthogonalEdgeStyle;rounded=0;orthogonalLoop=1;jettySize=auto;html=1;entryX=0;entryY=0.5;entryDx=0;entryDy=0;fontFamily=Helvetica;fontSize=14;fontColor=default;exitX=0.041;exitY=0.496;exitDx=0;exitDy=0;exitPerimeter=0;" edge="1" parent="1" source="CwpPlgjm44ggRxBaJvgp-62" target="CwpPlgjm44ggRxBaJvgp-67">
          <mxGeometry relative="1" as="geometry">
            <Array as="points">
              <mxPoint x="160" y="920" />
              <mxPoint x="160" y="1110" />
            </Array>
          </mxGeometry>
        </mxCell>
        <mxCell id="CwpPlgjm44ggRxBaJvgp-69" value="" style="edgeLabel;html=1;align=center;verticalAlign=middle;resizable=0;points=[];rounded=1;dashed=0;strokeColor=default;arcSize=10;fontFamily=Helvetica;fontSize=14;fontColor=default;fillColor=default;" vertex="1" connectable="0" parent="CwpPlgjm44ggRxBaJvgp-68">
          <mxGeometry x="0.1637" y="2" relative="1" as="geometry">
            <mxPoint as="offset" />
          </mxGeometry>
        </mxCell>
        <mxCell id="CwpPlgjm44ggRxBaJvgp-70" value="Sai" style="edgeLabel;html=1;align=center;verticalAlign=middle;resizable=0;points=[];rounded=1;dashed=0;strokeColor=default;arcSize=10;fontFamily=Helvetica;fontSize=14;fontColor=default;fillColor=default;" vertex="1" connectable="0" parent="CwpPlgjm44ggRxBaJvgp-68">
          <mxGeometry x="-0.4872" y="1" relative="1" as="geometry">
            <mxPoint as="offset" />
          </mxGeometry>
        </mxCell>
        <mxCell id="CwpPlgjm44ggRxBaJvgp-3" style="edgeStyle=orthogonalEdgeStyle;rounded=0;orthogonalLoop=1;jettySize=auto;html=1;fontFamily=Helvetica;fontSize=14;fontColor=default;" edge="1" parent="1" source="CwpPlgjm44ggRxBaJvgp-1" target="CwpPlgjm44ggRxBaJvgp-2">
          <mxGeometry relative="1" as="geometry" />
        </mxCell>
      </root>
    </mxGraphModel>
  </diagram>
</mxfile>
